<?xml version="1.0" encoding="utf-8"?>
<!-- Generator: Adobe Illustrator 17.0.0, SVG Export Plug-In . SVG Version: 6.00 Build 0)  -->
<!DOCTYPE svg PUBLIC "-//W3C//DTD SVG 1.1//EN" "http://www.w3.org/Graphics/SVG/1.1/DTD/svg11.dtd">
<svg version="1.1" id="Capa_1" xmlns="http://www.w3.org/2000/svg" xmlns:xlink="http://www.w3.org/1999/xlink" x="0px" y="0px"
	 width="2272px" height="1872px" viewBox="0 0 2272 1872" enable-background="new 0 0 2272 1872" xml:space="preserve">
<linearGradient id="SVGID_1_" gradientUnits="userSpaceOnUse" x1="1136" y1="1609" x2="1136" y2="1849.1333">
	<stop  offset="0" style="stop-color:#D7DDE7"/>
	<stop  offset="1" style="stop-color:#F2FCFC"/>
</linearGradient>
<rect y="1614.583" fill="url(#SVGID_1_)" width="2272" height="257.417"/>
<ellipse opacity="0.2" fill="#8397B4" cx="1086.937" cy="1699.593" rx="508.714" ry="53.956"/>
<rect fill="#F2FCFC" width="2272" height="1614.583"/>
<linearGradient id="SVGID_2_" gradientUnits="userSpaceOnUse" x1="1136" y1="465.7957" x2="1136" y2="1122.2439">
	<stop  offset="0" style="stop-color:#C0E2E1"/>
	<stop  offset="1" style="stop-color:#F2FCFC"/>
</linearGradient>
<polygon fill="url(#SVGID_2_)" points="2124.609,789.923 2124.609,713.107 2038.527,713.107 2038.527,458.291 1865.968,458.291 
	1865.968,936.93 1773.835,936.93 1773.835,828.485 1676.322,828.485 1676.322,713.107 1578.195,713.107 1578.195,912.969 
	1514.616,912.969 1514.616,801.294 1446.1,732.779 1446.1,789.923 1367.841,789.923 1367.841,629.08 1283.813,713.107 
	1283.813,936.93 1227.201,936.93 1227.201,839.236 1136.321,839.236 1136.321,789.923 988.93,789.923 988.93,713.107 
	902.848,713.107 902.848,458.291 730.289,458.291 730.289,936.93 638.156,936.93 638.156,828.485 540.643,828.485 540.643,713.107 
	442.516,713.107 442.516,912.969 378.937,912.969 378.937,801.294 310.422,732.779 310.422,789.923 232.162,789.923 232.162,629.08 
	148.134,713.107 148.134,936.93 91.523,936.93 91.523,839.236 0,839.236 0,1127.636 1135.679,1127.636 1136.321,1127.636 
	2272,1127.636 2272,889.538 2272,789.923 "/>
<g>
	<linearGradient id="SVGID_3_" gradientUnits="userSpaceOnUse" x1="1347.7198" y1="816.1459" x2="1347.7198" y2="898.1973">
		<stop  offset="0" style="stop-color:#5D574D"/>
		<stop  offset="1" style="stop-color:#CDC1AB"/>
	</linearGradient>
	<path fill="url(#SVGID_3_)" d="M1274.666,945.084c0,0,37.387-177.167,73.054-169.685c35.667,7.482,55.964,81.791,73.054,169.685
		h-19.532c0,0-27.167-146.491-53.522-146.491s-52.684,146.491-52.684,146.491H1274.666z"/>
	<path fill="#266E4B" d="M1210.85,934.144c0,0-42.198-19.49-18.755-47.622s-18.755-54.701,10.94-70.33
		c29.695-15.629,40.109,19.536,71.63-3.907s85.44,23.267,76.063,66.335c0,0,38.291-17.104,52.357,14.154
		c14.066,31.258-0.635,85.959-37.827,89.084"/>
	<polyline fill="#6FB75D" points="1258.176,871.947 1222.572,874.102 1267.909,885.477 1281.18,898.935 1246.616,913.872 
		1288.995,913.872 1328.067,878.619 1291.32,893.933 1275.319,881.028 1279.617,843.542 1263.989,868.548 	"/>
	<path fill="#6FB75D" d="M1324.941,948.255c0,0-41.416-86.71-99.243-112.122c0,0,68.493,60.943,70.974,125.604"/>
	<path fill="#6FB75D" d="M1342.618,934.144c0,0,11.622-52.311,46.594-36.682c34.972,15.629,47.475-10.94,38.879-32.821
		c-8.596-21.88,30.476-64.86,55.482-39.072c25.006,25.788,21.88-37.416,50.794-42.933c28.913-5.517,92.991,37.704,42.198,68.841
		c-50.794,31.137,22.32,16.29,18.974,42.077c-3.346,25.788-73.434,6.941-86.839,40.589
		C1495.295,967.791,1343.104,973.951,1342.618,934.144z"/>
	<path fill="#CDC1AB" d="M1274.666,938.441c0,0,37.387-177.167,73.054-169.685c35.667,7.482,55.964,81.791,73.054,169.685h-19.532
		c0,0-27.167-146.491-53.522-146.491s-52.684,146.491-52.684,146.491H1274.666z"/>
	<path fill="#CDC1AB" d="M1189.102,934.144H1508.7c0,0,49.453,361.072-179.629,361.072S1189.102,934.144,1189.102,934.144z"/>
	<linearGradient id="SVGID_4_" gradientUnits="userSpaceOnUse" x1="764.6309" y1="1213.3425" x2="795.1071" y2="1293.0496">
		<stop  offset="0" style="stop-color:#FF9A7F"/>
		<stop  offset="1" style="stop-color:#F06060"/>
	</linearGradient>
	<path fill="url(#SVGID_4_)" d="M773.996,1298.341c0,0-38.261-51.892-27.321-71.66s48.318-43.993,67.529,40.403
		S792.333,1327.862,773.996,1298.341z"/>
	<g>
		<linearGradient id="SVGID_5_" gradientUnits="userSpaceOnUse" x1="1003.4316" y1="1066.1702" x2="943.6544" y2="1203.3062">
			<stop  offset="0" style="stop-color:#53567F"/>
			<stop  offset="1" style="stop-color:#7490A2"/>
		</linearGradient>
		<path fill="url(#SVGID_5_)" d="M1060.367,879.33c0,0-52.951-8.68-97.005,34.605c-44.055,43.285-4.015,174.446-61.483,253.925
			c-57.469,79.479-127.883,375.016-127.883,375.016l40.208,23.784c0,0,195.904-287.265,231.22-390.766
			c35.317-103.501,102.449-156.082,91.9-173.016C1126.775,985.942,1060.367,879.33,1060.367,879.33z"/>
		<linearGradient id="SVGID_6_" gradientUnits="userSpaceOnUse" x1="791.423" y1="1562.7974" x2="757.4303" y2="1664.7754">
			<stop  offset="0" style="stop-color:#FFC2B2"/>
			<stop  offset="1" style="stop-color:#FF9A7F"/>
		</linearGradient>
		<polygon fill="url(#SVGID_6_)" points="814.203,1566.66 762.104,1655.388 740.06,1650.805 773.996,1542.876 		"/>
		<path fill="#53567F" d="M858.399,1715.99c-30.119,11.679-113.692,1.841-138.991-25.286c-31.31-33.55,20.65-39.899,20.65-39.899
			l22.045,4.583c0,0,0.597,0.115,1.707,0.353c6.978,1.484,34.167,7.486,59.198,16.415c9.278,3.309,18.244,7.012,25.789,11.04
			c11.746,6.256,20.022,13.3,20.529,20.791C869.678,1709.232,865.547,1713.212,858.399,1715.99z"/>
		<path fill="#D7DDE7" d="M710.071,1676.088c0,0,54.082,60.135,158.603,31.814c0,0-10.073,15.609-23.287,17.412
			C832.173,1727.116,706.613,1726.198,710.071,1676.088z"/>
		<path fill="#3B3E5B" d="M783.659,1682.57c-24.848-7.346-19.849-26.829-19.849-26.829c6.978,1.484,34.167,7.486,59.198,16.415
			C832.828,1692.267,808.499,1689.907,783.659,1682.57z"/>
		<path fill="#D7DDE7" d="M858.399,1715.99c-17.969-7.544-13.289-24.452-9.602-32.795c11.746,6.256,20.022,13.3,20.529,20.791
			C869.678,1709.232,865.547,1713.212,858.399,1715.99z"/>
	</g>
	<linearGradient id="SVGID_7_" gradientUnits="userSpaceOnUse" x1="841.5767" y1="1249.9299" x2="869.1225" y2="1298.5746">
		<stop  offset="0" style="stop-color:#F06060"/>
		<stop  offset="1" style="stop-color:#A01F24"/>
	</linearGradient>
	<circle fill="url(#SVGID_7_)" cx="863.354" cy="1288.388" r="49.399"/>
	<linearGradient id="SVGID_8_" gradientUnits="userSpaceOnUse" x1="921.4954" y1="1246.5912" x2="970.1401" y2="1307.2506">
		<stop  offset="0" style="stop-color:#F06060"/>
		<stop  offset="1" style="stop-color:#A01F24"/>
	</linearGradient>
	<circle fill="url(#SVGID_8_)" cx="952.923" cy="1285.781" r="55.523"/>
	<polygon fill="#9ED89B" points="883.915,1272.505 866.978,1272.193 870.929,1259.623 856.037,1267.712 835.063,1258.302 
		852.378,1274.156 829.188,1279.661 853.614,1281.202 874.33,1286.707 867.219,1278.78 	"/>
	<polygon fill="#9ED89B" points="990.477,1248.134 974.682,1254.257 973.581,1241.127 962.859,1254.252 939.884,1253.483 
		961.912,1261.602 942.533,1275.476 965.724,1267.656 986.982,1264.908 977.399,1260.263 	"/>
	<linearGradient id="SVGID_9_" gradientUnits="userSpaceOnUse" x1="910.118" y1="1177.2175" x2="910.118" y2="1259.2688">
		<stop  offset="0" style="stop-color:#5D574D"/>
		<stop  offset="1" style="stop-color:#CDC1AB"/>
	</linearGradient>
	<path fill="url(#SVGID_9_)" d="M837.064,1306.155c0,0,37.387-177.167,73.054-169.685c35.668,7.482,55.964,81.791,73.054,169.685
		H963.64c0,0-27.167-146.491-53.522-146.491s-52.684,146.491-52.684,146.491H837.064z"/>
	<linearGradient id="SVGID_10_" gradientUnits="userSpaceOnUse" x1="1045.7578" y1="873.431" x2="1043.4136" y2="899.2186">
		<stop  offset="0" style="stop-color:#FF9A7F"/>
		<stop  offset="1" style="stop-color:#FFC2B2"/>
	</linearGradient>
	<polyline fill="url(#SVGID_10_)" points="1114.139,872.555 1114.139,924.331 969.89,904.885 982.197,832.907 	"/>
	<linearGradient id="SVGID_11_" gradientUnits="userSpaceOnUse" x1="961.7351" y1="719.2302" x2="950.0135" y2="790.7321">
		<stop  offset="0" style="stop-color:#FF9A7F"/>
		<stop  offset="1" style="stop-color:#FFC2B2"/>
	</linearGradient>
	<path fill="url(#SVGID_11_)" d="M905.307,707.962c0,0-83.224,344.457-15.238,522.406c0,0,15.238,29.234,33.993,0
		s2.344-74.993,10.549-74.993c8.205,0-4.689,26.692,8.205,21.608c12.894-5.084,11.722-39.403-19.927-55.927
		c-31.648-16.524-17.237-302.93,33.993-394.029"/>
	<linearGradient id="SVGID_12_" gradientUnits="userSpaceOnUse" x1="1343.7571" y1="545.8459" x2="1383.6106" y2="610.3148">
		<stop  offset="0" style="stop-color:#FF9A7F"/>
		<stop  offset="1" style="stop-color:#FFC2B2"/>
	</linearGradient>
	<path fill="url(#SVGID_12_)" d="M1212.413,618.878c0,0,104.322,198.095,143.004,176.996
		c38.681-21.099,109.011-239.121,139.487-241.465c30.476-2.344,36.337,17.582,15.238,26.96
		c-21.099,9.377-19.927,23.443-3.516,24.615c16.41,1.172,37.509-82.051,52.747-83.224c15.238-1.172-10.549,89.084-49.231,110.183
		c-38.681,21.099-25.788,3.169-45.714,43.196c-19.927,40.027-73.846,163.104-107.839,174.826s-174.945-181.685-189.89-219.194
		L1212.413,618.878z"/>
	<path fill="#53567F" d="M1118.453,478.178c0,0,66.223,123.117,111.154,127.806c0,0-24.098,39.854-49.364,50.403l8.64,39.623
		c0,0-64.934,94.003-51.178,173.71c0,0-76.501,14.066-172.618-8.205c0,0-1.172-126.594,12.894-178.169l-21.099,42.198
		c0,0-66.813-1.172-90.256-17.582c0,0,32.82-56.264,53.919-116.044s98.462-86.74,98.462-86.74"/>
	<linearGradient id="SVGID_13_" gradientUnits="userSpaceOnUse" x1="1176.0299" y1="526.4696" x2="1120.9384" y2="370.5721">
		<stop  offset="0" style="stop-color:#FF9A7F"/>
		<stop  offset="1" style="stop-color:#FFC2B2"/>
	</linearGradient>
	<path fill="url(#SVGID_13_)" d="M1196.003,259.024c0,0-8.777,96.899,33.602,89.084c0,0,0.781,17.192-28.132,21.88
		c0,0,8.596,21.88-5.47,31.258c0,0,10.94,10.94,0,17.973c-10.94,7.033-11.722,36.728-11.722,36.728s-40.635-5.47-59.78-33.602
		c0,0-6.642,62.475-12.894,116.825c0,0-80.488-44.151-85.958-120.733s92.21-190.672,92.21-190.672"/>
	<path fill="#FFF975" d="M1086.755,326.733c-21.652,0-39.204,17.552-39.204,39.204s17.552,39.204,39.204,39.204
		c21.652,0,39.204-17.552,39.204-39.204S1108.407,326.733,1086.755,326.733z M1086.755,398.613
		c-18.047,0-32.676-14.63-32.676-32.676c0-18.047,14.63-32.676,32.676-32.676c18.047,0,32.676,14.63,32.676,32.676
		C1119.431,383.984,1104.802,398.613,1086.755,398.613z"/>
	<path fill="#F06060" d="M1196.003,259.024c0,0,57.045-25.788,50.012-67.204c-7.033-41.416-67.204-67.204-98.462-21.099
		c0,0-90.647-46.386-148.474,31.899c-57.827,78.285,35.946,127.515-18.755,158.773s-115.653,71.893-79.707,157.851
		s-32.82,37.509-60.952,80.488s57.045,90.647,87.521,45.324s38.291,0.781,75.8-29.695s93.22-98.071,53.529-153.553
		c-39.691-55.482,69.939-91.819,62.125-199.658C1118.64,262.15,1148.335,235.581,1196.003,259.024z"/>
	<path fill="#FF8497" d="M1203.77,388.351c0,0-5.422-2.733-10.697,2.835c-5.275,5.568-13.773,4.689-19.634,2.051
		c0,0,11.135,11.038,22.564,8.01C1207.432,398.218,1203.77,388.351,1203.77,388.351z"/>
	<path fill="#FF8497" d="M1173.439,393.237c0,0,15.694,27.186,25.478,23.459c9.784-3.727,2.154-15.943-2.914-15.449"/>
	<path fill="#592B23" d="M1137.705,311.855c0,0,6.118,14.984,13.733,13.973c7.616-1.011,16.034-20.725,28.805-3.224
		c0,0-5.854-21.133-26.9-3.343C1153.343,319.261,1147.447,324.318,1137.705,311.855z"/>
	<g>
		<path fill="#7490A2" d="M969.89,904.885c0,0-40.438,35.269-35.163,96.805s131.862,114.28,156.476,209.22
			c24.614,94.94,207.462,337.566,207.462,337.566l43.954-15.823c0,0-96.491-334.049-153.735-427.232
			c-57.244-93.182-54.972-178.424-74.744-181.09C1094.367,921.666,969.89,904.885,969.89,904.885z"/>
		<linearGradient id="SVGID_14_" gradientUnits="userSpaceOnUse" x1="1365.0697" y1="1637.0806" x2="1331.077" y2="1563.2344">
			<stop  offset="0" style="stop-color:#FF9A7F"/>
			<stop  offset="1" style="stop-color:#FFC2B2"/>
		</linearGradient>
		<polygon fill="url(#SVGID_14_)" points="1342.618,1532.653 1377.781,1629.351 1360.2,1643.416 1298.665,1548.476 		"/>
		<path fill="#53567F" d="M1485.855,1593.776c-10.198,30.652-71.045,88.78-108.073,90.983
			c-45.808,2.743-17.583-41.342-17.583-41.342l17.583-14.066c0,0,0.469-0.387,1.359-1.09c5.591-4.431,27.546-21.556,50.38-35.153
			c8.463-5.04,17.032-9.588,24.944-12.835c12.308-5.064,23.01-6.951,29.105-2.567
			C1487.836,1580.777,1488.27,1586.497,1485.855,1593.776z"/>
		<path fill="#D7DDE7" d="M1360.568,1682.639c0,0,80.807-3.345,125.603-101.935c0,0,5.607,17.711-1.426,29.042
			S1396.977,1717.242,1360.568,1682.639z"/>
		<path fill="#3B3E5B" d="M1412.466,1630.067c-21.497,14.465-33.325-1.805-33.325-1.805c5.591-4.431,27.546-21.556,50.38-35.153
			C1451.276,1598.36,1433.952,1615.602,1412.466,1630.067z"/>
		<path fill="#D7DDE7" d="M1485.855,1593.776c-17.266,9.037-27.311-5.345-31.391-13.503c12.308-5.064,23.01-6.951,29.105-2.567
			C1487.836,1580.777,1488.27,1586.497,1485.855,1593.776z"/>
	</g>
	<g>
		
			<linearGradient id="SVGID_15_" gradientUnits="userSpaceOnUse" x1="1109.104" y1="1222.5277" x2="1132.3438" y2="1283.3085" gradientTransform="matrix(0.7071 0.7071 -0.7071 0.7071 1125.1747 -380.3087)">
			<stop  offset="0" style="stop-color:#FF9A7F"/>
			<stop  offset="1" style="stop-color:#F06060"/>
		</linearGradient>
		<path fill="url(#SVGID_15_)" d="M1004.19,1319.285c0,0,7.35-48.611,23.908-53.371c16.558-4.76,49.775,2.332,14.627,58.197
			C1007.577,1379.976,998.159,1345.09,1004.19,1319.285z"/>
		<path fill="#9ED89B" d="M1119.234,1242.194c-19.802,15.592-43.269-4.513-48.812,19.448c-3.982,17.179-15.618,24.074-26.09,17.507
			c-3.375-2.111-6.617-5.619-9.455-10.618c-0.632-1.125-1.251-2.326-1.846-3.603c0,0-25.458-28.214-0.594-46.328
			c24.858-18.12-11.377-21.489,4.216-37.082c15.592-15.592,46.347-37.082,58.988-13.481c12.641,23.588,27.841-26.944,35.615-12.42
			c7.787,14.524,17.033,42.315-14.139,54.121C1085.945,1221.546,1139.036,1226.602,1119.234,1242.194z"/>
		<path fill="#6FB75D" d="M1044.332,1279.15c-3.375-2.111-6.617-5.619-9.455-10.618c7.515-16.161,27.234-54.854,52.061-74.65
			C1086.937,1193.882,1047.795,1242.782,1044.332,1279.15z"/>
		<polygon fill="#6FB75D" points="1060.232,1189.958 1065.949,1220.929 1095.64,1210.169 1059.324,1230.585 		"/>
		<polygon fill="#6FB75D" points="1043.21,1218.89 1048.927,1249.86 1078.618,1239.101 1042.302,1259.517 		"/>
	</g>
	<path fill="#CDC1AB" d="M751.5,1295.215h319.598c0,0,49.453,361.072-179.629,361.072S751.5,1295.215,751.5,1295.215z"/>
	<path fill="#9ED89B" d="M809.19,1120.176c-3.903,32.821-44.308,35.938-27.229,63.297c12.237,19.622,7.842,36.806-7.959,40.428
		c-5.087,1.172-11.346,0.926-18.614-1.078c-1.629-0.457-3.317-0.996-5.052-1.629c0,0-49.77-2.555-43.511-42.409
		c6.248-39.854-30.476-9.377-30.476-38.294c0-28.917,8.592-77.363,42.198-67.2c33.594,10.151,0.832-50.801,21.509-44.542
		c20.689,6.248,55.033,23.443,37.075,63.297C759.174,1131.898,813.093,1087.356,809.19,1120.176z"/>
	<path fill="#6FB75D" d="M774.001,1223.901c-5.087,1.172-11.346,0.926-18.614-1.078c-8.018-21.955-25.612-76.12-20.947-117.497
		C734.441,1105.325,743.49,1186.966,774.001,1223.901z"/>
	<polygon fill="#6FB75D" points="706.039,1126.45 740.06,1149.867 757.615,1112.358 742.871,1164.965 	"/>
	<polygon fill="#6FB75D" points="717.083,1169.063 751.103,1192.48 768.658,1154.971 753.914,1207.578 	"/>
	<path fill="#CDC1AB" d="M1355.417,795.874c0,0,17.582,25.299,20.089,40.281c0,0,12.911-12.222,13.706-17.777
		c0,0-12.121-31.007-20.223-35.742L1355.417,795.874z"/>
	<linearGradient id="SVGID_16_" gradientUnits="userSpaceOnUse" x1="1314.5881" y1="821.0713" x2="1309.0204" y2="845.3936">
		<stop  offset="0" style="stop-color:#5D574D"/>
		<stop  offset="1" style="stop-color:#CDC1AB"/>
	</linearGradient>
	<polygon fill="url(#SVGID_16_)" points="1321.296,832.907 1315.363,851.477 1299.696,844.99 1308.296,820.79 	"/>
	<path fill="#9ED89B" d="M1435.124,934.144c0,0,62.515-85.131,101.587-106.23c0,0-63.204,53.874-72.581,106.23"/>
	<polyline fill="#9ED89B" points="1485.918,871.947 1465.6,843.542 1475.759,883.754 1452.788,911.28 1442.157,899.024 
		1444.472,921.838 1485.918,921.838 1469.135,913.09 1474.196,894.336 1518.738,882.69 1490.43,878.619 	"/>
</g>
</svg>
