<svg xmlns="http://www.w3.org/2000/svg" viewBox="0 0 64 64"><defs><style>.cls-1{fill:#f7931e;}</style></defs><g id="Layer_14" data-name="Layer 14"><path d="M57.82,57.54H6.18a3.2,3.2,0,0,1-2.75-4.77L29.25,8.05a3.17,3.17,0,0,1,5.5,0L60.57,52.77A3.2,3.2,0,0,1,57.82,57.54ZM32,8.46a1.17,1.17,0,0,0-1,.59L5.16,53.77a1.18,1.18,0,0,0,1,1.77H57.82a1.17,1.17,0,0,0,1-.59,1.16,1.16,0,0,0,0-1.18L33,9.05A1.16,1.16,0,0,0,32,8.46Z"/><path class="cls-1" d="M32.45,16h-.9a3.13,3.13,0,0,0-3.13,3.12V38.37a3.13,3.13,0,0,0,3.13,3.12h.9a3.13,3.13,0,0,0,3.13-3.12V19.14A3.13,3.13,0,0,0,32.45,16Zm1.13,22.35a1.12,1.12,0,0,1-1.13,1.12h-.9a1.13,1.13,0,0,1-1.13-1.12V19.14A1.13,1.13,0,0,1,31.55,18h.9a1.12,1.12,0,0,1,1.13,1.12Z"/><path class="cls-1" d="M32,44.32a3.58,3.58,0,0,0,0,7.16A3.58,3.58,0,0,0,32,44.32Zm0,5.16a1.58,1.58,0,0,1,0-3.16A1.58,1.58,0,0,1,32,49.48Z"/></g></svg>